<svg enable-background="new 0 0 24 24" height="512" viewBox="0 0 24 24" width="512" xmlns="http://www.w3.org/2000/svg"><path d="m8 6.75c0-.965-.785-1.75-1.75-1.75h-1.25v-4c0-.552-.447-1-1-1s-1 .448-1 1v4h-1.25c-.965 0-1.75.785-1.75 1.75v1.5c0 .965.785 1.75 1.75 1.75h1.25v13c0 .552.447 1 1 1s1-.448 1-1v-13h1.25c.965 0 1.75-.785 1.75-1.75z"/><path d="m22.25 5h-1.25v-4c0-.552-.447-1-1-1s-1 .448-1 1v4h-1.25c-.965 0-1.75.785-1.75 1.75v1.5c0 .965.785 1.75 1.75 1.75h1.25v13c0 .552.447 1 1 1s1-.448 1-1v-13h1.25c.965 0 1.75-.785 1.75-1.75v-1.5c0-.965-.785-1.75-1.75-1.75z"/><path d="m14.25 15h-1.25v-14c0-.552-.447-1-1-1s-1 .448-1 1v14h-1.25c-.965 0-1.75.785-1.75 1.75v1.5c0 .965.785 1.75 1.75 1.75h1.25v3c0 .552.447 1 1 1s1-.448 1-1v-3h1.25c.965 0 1.75-.785 1.75-1.75v-1.5c0-.965-.785-1.75-1.75-1.75z"/></svg>